<svg xmlns="http://www.w3.org/2000/svg" xmlns:xlink="http://www.w3.org/1999/xlink" width="1024" zoomAndPan="magnify" viewBox="0 0 768 767.999994" height="1024" preserveAspectRatio="xMidYMid meet" version="1.0"><defs><clipPath id="2eed3b740c"><path d="M 0 10.5 L 766 10.5 L 766 757 L 0 757 Z M 0 10.5 " clip-rule="nonzero"/></clipPath></defs><g clip-path="url(#2eed3b740c)"><path fill="#ffffff" d="M 382.515625 10.5 C 171.285156 10.5 0 181.753906 0 393.015625 C 0 562.023438 109.601562 705.40625 261.589844 755.984375 C 280.703125 759.523438 287.722656 747.6875 287.722656 737.582031 C 287.722656 728.464844 287.367188 698.328125 287.203125 666.367188 C 180.785156 689.503906 158.332031 621.234375 158.332031 621.234375 C 140.929688 577.019531 115.859375 565.265625 115.859375 565.265625 C 81.15625 541.523438 118.476562 542.011719 118.476562 542.011719 C 156.886719 544.710938 177.113281 581.429688 177.113281 581.429688 C 211.230469 639.910156 266.597656 623 288.425781 613.230469 C 291.859375 588.503906 301.773438 571.632812 312.710938 562.078125 C 227.75 552.40625 138.433594 519.605469 138.433594 373.039062 C 138.433594 331.277344 153.378906 297.152344 177.847656 270.367188 C 173.878906 260.730469 160.785156 221.824219 181.554688 169.136719 C 181.554688 169.136719 213.675781 158.855469 286.773438 208.347656 C 317.28125 199.867188 350.007812 195.621094 382.515625 195.476562 C 415.023438 195.621094 447.769531 199.867188 478.339844 208.347656 C 551.351562 158.855469 583.429688 169.136719 583.429688 169.136719 C 604.246094 221.824219 591.148438 260.730469 587.179688 270.367188 C 611.703125 297.152344 626.542969 331.273438 626.542969 373.039062 C 626.542969 519.953125 537.058594 552.304688 451.882812 561.773438 C 465.601562 573.644531 477.828125 596.925781 477.828125 632.609375 C 477.828125 683.789062 477.382812 724.984375 477.382812 737.582031 C 477.382812 747.761719 484.269531 759.691406 503.660156 755.933594 C 655.5625 705.296875 765.027344 561.964844 765.027344 393.015625 C 765.027344 181.753906 593.765625 10.5 382.515625 10.5 " fill-opacity="1" fill-rule="nonzero"/></g><path fill="#ffffff" d="M 143.265625 555.402344 C 142.425781 557.300781 139.429688 557.871094 136.710938 556.570312 C 133.933594 555.320312 132.375 552.730469 133.273438 550.820312 C 134.101562 548.863281 137.09375 548.320312 139.863281 549.632812 C 142.644531 550.878906 144.226562 553.492188 143.265625 555.402344 M 162.082031 572.191406 C 160.257812 573.882812 156.691406 573.097656 154.269531 570.421875 C 151.765625 567.757812 151.300781 564.191406 153.148438 562.472656 C 155.03125 560.785156 158.488281 561.574219 160.996094 564.242188 C 163.5 566.941406 163.984375 570.484375 162.078125 572.191406 M 174.988281 593.671875 C 172.644531 595.300781 168.808594 593.773438 166.441406 590.371094 C 164.101562 586.972656 164.101562 582.890625 166.492188 581.257812 C 168.871094 579.621094 172.644531 581.089844 175.042969 584.464844 C 177.382812 587.925781 177.382812 592.003906 174.988281 593.671875 M 196.816406 618.550781 C 194.722656 620.859375 190.257812 620.242188 186.988281 617.085938 C 183.644531 614 182.710938 609.625 184.816406 607.3125 C 186.9375 604.996094 191.425781 605.644531 194.722656 608.773438 C 198.042969 611.851562 199.054688 616.261719 196.820312 618.550781 M 225.03125 626.949219 C 224.109375 629.941406 219.808594 631.304688 215.476562 630.03125 C 211.148438 628.722656 208.316406 625.210938 209.191406 622.183594 C 210.089844 619.171875 214.410156 617.75 218.773438 619.113281 C 223.09375 620.417969 225.933594 623.902344 225.03125 626.949219 M 257.140625 630.511719 C 257.25 633.664062 253.574219 636.28125 249.027344 636.339844 C 244.453125 636.4375 240.753906 633.886719 240.703125 630.78125 C 240.703125 627.597656 244.296875 625.003906 248.867188 624.929688 C 253.414062 624.839844 257.140625 627.375 257.140625 630.511719 M 288.683594 629.300781 C 289.230469 632.378906 286.066406 635.539062 281.554688 636.382812 C 277.113281 637.191406 273.003906 635.292969 272.4375 632.242188 C 271.882812 629.085938 275.105469 625.925781 279.535156 625.105469 C 284.0625 624.320312 288.109375 626.171875 288.683594 629.300781 " fill-opacity="1" fill-rule="nonzero"/></svg>